<svg width="53" height="32" viewBox="0 0 53 32" fill="none" xmlns="http://www.w3.org/2000/svg">
<path d="M2.94 12.9998V23.7998C2.94 23.9332 2.94667 24.0998 2.96 24.2998C2.97333 24.4998 3.00667 24.6998 3.06 24.8998C3.12667 25.0865 3.22 25.2532 3.34 25.3998C3.46 25.5332 3.62667 25.5998 3.84 25.5998C4.49333 25.5998 4.97333 24.8732 5.28 23.4198H6.02C5.87333 24.2598 5.68667 24.9265 5.46 25.4198C5.23333 25.8998 4.99333 26.2665 4.74 26.5198C4.48667 26.7732 4.22667 26.9332 3.96 26.9998C3.69333 27.0798 3.45333 27.1198 3.24 27.1198C2.77333 27.1198 2.39333 27.0332 2.1 26.8598C1.80667 26.6732 1.57333 26.4398 1.4 26.1598C1.22667 25.8798 1.10667 25.5665 1.04 25.2198C0.973333 24.8732 0.94 24.5398 0.94 24.2198V13.2798L2.94 12.9998ZM8.89641 16.8998C9.41641 16.8998 9.86307 16.9798 10.2364 17.1398C10.6097 17.2998 10.9164 17.5265 11.1564 17.8198C11.3964 18.0998 11.5831 18.4331 11.7164 18.8198C11.8631 19.2065 11.9697 19.6198 12.0364 20.0598H12.1564C12.7164 20.0598 13.2297 19.9465 13.6964 19.7198C14.1631 19.4931 14.5631 19.2065 14.8964 18.8598L15.1964 19.3998C14.9297 19.8265 14.5031 20.1798 13.9164 20.4598C13.3431 20.7398 12.7497 20.9331 12.1364 21.0398C12.1364 21.1731 12.1364 21.3065 12.1364 21.4398C12.1497 21.5731 12.1564 21.7132 12.1564 21.8598C12.1564 23.4998 11.8564 24.7865 11.2564 25.7198C10.6564 26.6532 9.81641 27.1198 8.73641 27.1198C8.29641 27.1198 7.84974 27.0398 7.39641 26.8798C6.95641 26.7198 6.55641 26.4532 6.19641 26.0798C5.83641 25.7065 5.54307 25.2265 5.31641 24.6398C5.10307 24.0532 4.99641 23.3265 4.99641 22.4598C4.99641 21.8731 5.05641 21.2531 5.17641 20.5998C5.30974 19.9465 5.52307 19.3465 5.81641 18.7998C6.12307 18.2531 6.52307 17.7998 7.01641 17.4398C7.52307 17.0798 8.14974 16.8998 8.89641 16.8998ZM9.09641 25.5998C9.80307 25.5998 10.3231 25.2532 10.6564 24.5598C10.9897 23.8532 11.1564 22.8598 11.1564 21.5798C11.1564 21.4998 11.1564 21.4198 11.1564 21.3398C11.1564 21.2598 11.1497 21.1798 11.1364 21.0998C10.7497 21.0731 10.4697 20.9865 10.2964 20.8398C10.1364 20.6931 10.0564 20.4465 10.0564 20.0998C10.0564 19.7931 10.1231 19.5798 10.2564 19.4598C10.3897 19.3265 10.5897 19.2531 10.8564 19.2398C10.6964 18.7732 10.4897 18.4531 10.2364 18.2798C9.99641 18.0931 9.72307 17.9998 9.41641 17.9998C9.00307 17.9998 8.64974 18.1398 8.35641 18.4198C8.07641 18.6865 7.84307 19.0332 7.65641 19.4598C7.48307 19.8865 7.35641 20.3598 7.27641 20.8798C7.19641 21.3865 7.15641 21.8865 7.15641 22.3798C7.15641 23.0332 7.21641 23.5665 7.33641 23.9798C7.45641 24.3932 7.60974 24.7198 7.79641 24.9598C7.98307 25.1998 8.18974 25.3665 8.41641 25.4598C8.64307 25.5532 8.86974 25.5998 9.09641 25.5998ZM15.6353 13.9598V16.9998H17.1753V17.6998H15.6353V23.7998C15.6353 23.9598 15.642 24.1465 15.6553 24.3598C15.6686 24.5598 15.702 24.7532 15.7553 24.9398C15.822 25.1265 15.9153 25.2865 16.0353 25.4198C16.1686 25.5398 16.3486 25.5998 16.5753 25.5998C16.9353 25.5998 17.2753 25.4198 17.5953 25.0598C17.9286 24.6998 18.1886 24.1532 18.3753 23.4198H19.1153C18.8886 24.2598 18.642 24.9265 18.3753 25.4198C18.122 25.8998 17.8553 26.2665 17.5753 26.5198C17.2953 26.7732 17.0153 26.9332 16.7353 26.9998C16.4686 27.0798 16.222 27.1198 15.9953 27.1198C15.5153 27.1198 15.122 27.0332 14.8153 26.8598C14.5086 26.6732 14.2686 26.4398 14.0953 26.1598C13.922 25.8798 13.802 25.5732 13.7353 25.2398C13.6686 24.8932 13.6353 24.5532 13.6353 24.2198V17.6998H12.9553V16.9998H13.6353V14.2398L15.6353 13.9598ZM24.6019 19.4998C24.6019 20.4331 24.2152 21.2132 23.4419 21.8398C22.6819 22.4665 21.6219 22.8532 20.2619 22.9998C20.3152 23.5332 20.4085 23.9665 20.5419 24.2998C20.6885 24.6332 20.8619 24.8998 21.0619 25.0998C21.2619 25.2865 21.4885 25.4198 21.7419 25.4998C22.0085 25.5665 22.2819 25.5998 22.5619 25.5998C23.2019 25.5998 23.8019 25.4332 24.3619 25.0998C24.9219 24.7665 25.3752 24.2065 25.7219 23.4198H26.3619C26.1885 23.9132 25.9485 24.3865 25.6419 24.8398C25.3352 25.2798 24.9752 25.6732 24.5619 26.0198C24.1485 26.3532 23.7019 26.6198 23.2219 26.8198C22.7419 27.0198 22.2485 27.1198 21.7419 27.1198C21.2752 27.1198 20.8219 27.0398 20.3819 26.8798C19.9552 26.7198 19.5752 26.4598 19.2419 26.0998C18.9085 25.7265 18.6352 25.2465 18.4219 24.6598C18.2219 24.0732 18.1219 23.3531 18.1219 22.4998C18.1219 21.9398 18.1819 21.3331 18.3019 20.6798C18.4352 20.0265 18.6485 19.4198 18.9419 18.8598C19.2485 18.2998 19.6419 17.8331 20.1219 17.4598C20.6152 17.0865 21.2219 16.8998 21.9419 16.8998C22.2752 16.8998 22.5952 16.9398 22.9019 17.0198C23.2219 17.0865 23.5085 17.2198 23.7619 17.4198C24.0152 17.6065 24.2152 17.8665 24.3619 18.1998C24.5219 18.5331 24.6019 18.9665 24.6019 19.4998ZM20.2419 22.2198C21.1885 22.0732 21.9352 21.7398 22.4819 21.2198C23.0419 20.6998 23.3219 20.0598 23.3219 19.2998C23.3219 18.7931 23.2352 18.4332 23.0619 18.2198C22.8885 17.9931 22.6419 17.8798 22.3219 17.8798C21.9752 17.8798 21.6685 18.0131 21.4019 18.2798C21.1485 18.5465 20.9352 18.8932 20.7619 19.3198C20.5885 19.7332 20.4552 20.1998 20.3619 20.7198C20.2819 21.2265 20.2419 21.7265 20.2419 22.2198ZM27.7052 16.9998V18.6798C27.8652 18.4398 28.0185 18.2131 28.1652 17.9998C28.3252 17.7865 28.4985 17.5998 28.6852 17.4398C28.8718 17.2798 29.0785 17.1532 29.3052 17.0598C29.5318 16.9532 29.7852 16.8998 30.0652 16.8998C30.5185 16.8998 30.8518 17.0198 31.0652 17.2598C31.2785 17.4865 31.3852 17.7665 31.3852 18.0998C31.3852 18.2998 31.3518 18.4665 31.2852 18.5998C31.2185 18.7331 31.1385 18.8398 31.0452 18.9198C30.9518 18.9998 30.8518 19.0598 30.7452 19.0998C30.6385 19.1265 30.5452 19.1398 30.4652 19.1398C30.3452 19.1398 30.2452 19.1132 30.1652 19.0598C30.0985 19.0065 30.0252 18.9531 29.9452 18.8998C29.8785 18.8331 29.7985 18.7731 29.7052 18.7198C29.6118 18.6665 29.4918 18.6398 29.3452 18.6398C29.0385 18.6398 28.7452 18.7465 28.4652 18.9598C28.1852 19.1732 27.9318 19.3998 27.7052 19.6398V26.9998H25.7052V16.9998H27.7052ZM34.4439 16.9998V23.7998C34.4439 23.9332 34.4506 24.0998 34.4639 24.2998C34.4772 24.4998 34.5106 24.6998 34.5639 24.8998C34.6306 25.0865 34.7239 25.2532 34.8439 25.3998C34.9639 25.5332 35.1306 25.5998 35.3439 25.5998C35.9972 25.5998 36.4772 24.8732 36.7839 23.4198H37.5239C37.3772 24.2598 37.1906 24.9265 36.9639 25.4198C36.7372 25.8998 36.4972 26.2665 36.2439 26.5198C35.9906 26.7732 35.7306 26.9332 35.4639 26.9998C35.1972 27.0798 34.9572 27.1198 34.7439 27.1198C34.2772 27.1198 33.8972 27.0332 33.6039 26.8598C33.3106 26.6732 33.0772 26.4398 32.9039 26.1598C32.7306 25.8798 32.6106 25.5665 32.5439 25.2198C32.4772 24.8732 32.4439 24.5398 32.4439 24.2198V16.9998H34.4439ZM32.0839 14.1198C32.0839 13.7598 32.2106 13.4465 32.4639 13.1798C32.7172 12.9131 33.0306 12.7798 33.4039 12.7798C33.7639 12.7798 34.0772 12.9131 34.3439 13.1798C34.6106 13.4465 34.7439 13.7598 34.7439 14.1198C34.7439 14.4931 34.6106 14.8065 34.3439 15.0598C34.0772 15.3132 33.7639 15.4398 33.4039 15.4398C33.0306 15.4398 32.7172 15.3132 32.4639 15.0598C32.2106 14.8065 32.0839 14.4931 32.0839 14.1198ZM44.1398 16.9998V23.7998C44.1398 23.9332 44.1465 24.0998 44.1598 24.2998C44.1732 24.4998 44.2065 24.6998 44.2598 24.8998C44.3265 25.0865 44.4198 25.2532 44.5398 25.3998C44.6598 25.5332 44.8265 25.5998 45.0398 25.5998C45.6932 25.5998 46.1732 24.8732 46.4798 23.4198H47.2198C47.0732 24.2598 46.8865 24.9265 46.6598 25.4198C46.4332 25.8998 46.1932 26.2665 45.9398 26.5198C45.6865 26.7732 45.4265 26.9332 45.1598 26.9998C44.8932 27.0798 44.6532 27.1198 44.4398 27.1198C44.1332 27.1198 43.8665 27.0665 43.6398 26.9598C43.4265 26.8532 43.2398 26.7132 43.0798 26.5398C42.9332 26.3665 42.8132 26.1665 42.7198 25.9398C42.6265 25.7132 42.5532 25.4732 42.4998 25.2198C42.2998 25.7398 41.9732 26.1865 41.5198 26.5598C41.0798 26.9332 40.5398 27.1198 39.8998 27.1198C39.4998 27.1198 39.0932 27.0398 38.6798 26.8798C38.2798 26.7198 37.9132 26.4598 37.5798 26.0998C37.2598 25.7265 36.9932 25.2532 36.7798 24.6798C36.5798 24.0932 36.4798 23.3798 36.4798 22.5398C36.4798 21.9265 36.5465 21.2865 36.6798 20.6198C36.8265 19.9531 37.0532 19.3465 37.3598 18.7998C37.6665 18.2531 38.0598 17.7998 38.5398 17.4398C39.0198 17.0798 39.5998 16.8998 40.2798 16.8998C40.4398 16.8998 40.6065 16.9198 40.7798 16.9598C40.9665 16.9865 41.1398 17.0398 41.2998 17.1198C41.4732 17.1998 41.6332 17.3131 41.7798 17.4598C41.9265 17.5931 42.0465 17.7598 42.1398 17.9598V16.9998H44.1398ZM40.3998 25.5998C40.5998 25.5998 40.7998 25.5465 40.9998 25.4398C41.2132 25.3198 41.3998 25.1665 41.5598 24.9798C41.7332 24.7798 41.8732 24.5465 41.9798 24.2798C42.0865 24.0132 42.1398 23.7265 42.1398 23.4198V18.8598C42.0465 18.6465 41.8998 18.4531 41.6998 18.2798C41.5132 18.0931 41.2665 17.9998 40.9598 17.9998C40.5332 17.9998 40.1665 18.1465 39.8598 18.4398C39.5532 18.7198 39.3065 19.0798 39.1198 19.5198C38.9332 19.9465 38.7932 20.4198 38.6998 20.9398C38.6198 21.4465 38.5798 21.9331 38.5798 22.3998C38.5798 23.5465 38.7332 24.3665 39.0398 24.8598C39.3598 25.3532 39.8132 25.5998 40.3998 25.5998ZM50.4469 16.3798C50.7669 17.6598 51.0335 18.7065 51.2469 19.5198C51.4602 20.3198 51.6269 20.9998 51.7469 21.5598C51.8802 22.1065 51.9735 22.5932 52.0269 23.0198C52.0802 23.4465 52.1069 23.9198 52.1069 24.4398C52.1069 24.9332 52.0002 25.3532 51.7869 25.6998C51.5735 26.0332 51.3069 26.3065 50.9869 26.5198C50.6669 26.7332 50.3269 26.8865 49.9669 26.9798C49.6069 27.0732 49.2869 27.1198 49.0069 27.1198C48.4202 27.1198 47.9335 27.0265 47.5469 26.8398C47.1735 26.6532 46.8735 26.4198 46.6469 26.1398C46.4202 25.8465 46.2602 25.5265 46.1669 25.1798C46.0735 24.8198 46.0269 24.4798 46.0269 24.1598C46.0269 23.8132 46.0935 23.5132 46.2269 23.2598C46.3735 22.9931 46.5469 22.8065 46.7469 22.6998C47.0935 21.6998 47.4335 20.7131 47.7669 19.7398C48.1002 18.7532 48.3202 17.7665 48.4269 16.7798L50.4469 16.3798ZM49.9869 24.2198C49.9869 23.8065 49.9602 23.4398 49.9069 23.1198C49.8669 22.7998 49.8002 22.4465 49.7069 22.0598C49.6135 21.6731 49.4935 21.2065 49.3469 20.6598C49.2135 20.0998 49.0535 19.3865 48.8669 18.5198C48.7869 19.2665 48.6202 19.9798 48.3669 20.6598C48.1269 21.3398 47.9069 22.0398 47.7069 22.7598C47.8269 22.8398 47.9269 22.9531 48.0069 23.0998C48.1002 23.2332 48.1469 23.4132 48.1469 23.6398C48.1469 23.8932 48.0802 24.0865 47.9469 24.2198C47.8135 24.3532 47.6669 24.4198 47.5069 24.4198C47.2935 24.4198 47.1135 24.3265 46.9669 24.1398C47.0735 24.6065 47.2602 24.9732 47.5269 25.2398C47.7935 25.4932 48.1469 25.6198 48.5869 25.6198C49.0135 25.6198 49.3535 25.5132 49.6069 25.2998C49.8602 25.0732 49.9869 24.7132 49.9869 24.2198Z" fill="#72297F"/>
<path d="M5.764 5.556V6.48C5.916 6.32 6.092 6.192 6.292 6.096C6.5 5.992 6.74 5.94 7.012 5.94C7.292 5.94 7.552 6 7.792 6.12C8.032 6.24 8.24 6.424 8.416 6.672C8.6 6.912 8.744 7.22 8.848 7.596C8.952 7.964 9.004 8.404 9.004 8.916C9.004 9.916 8.816 10.692 8.44 11.244C8.064 11.796 7.564 12.072 6.94 12.072C6.676 12.072 6.448 12.024 6.256 11.928C6.072 11.824 5.908 11.68 5.764 11.496V14.7L4.552 15V5.556H5.764ZM6.592 6.72C6.416 6.72 6.256 6.772 6.112 6.876C5.976 6.972 5.86 7.112 5.764 7.296V10.896C5.876 11.04 6 11.144 6.136 11.208C6.28 11.272 6.42 11.304 6.556 11.304C6.756 11.304 6.932 11.24 7.084 11.112C7.236 10.984 7.364 10.812 7.468 10.596C7.58 10.372 7.664 10.112 7.72 9.816C7.776 9.52 7.804 9.204 7.804 8.868C7.804 8.452 7.764 8.108 7.684 7.836C7.612 7.556 7.516 7.336 7.396 7.176C7.276 7.008 7.144 6.892 7 6.828C6.856 6.756 6.72 6.72 6.592 6.72ZM11.8222 5.94C12.1342 5.94 12.4022 5.988 12.6262 6.084C12.8502 6.18 13.0342 6.316 13.1782 6.492C13.3222 6.66 13.4342 6.86 13.5142 7.092C13.6022 7.324 13.6662 7.572 13.7062 7.836H13.7782C14.1142 7.836 14.4222 7.768 14.7022 7.632C14.9822 7.496 15.2222 7.324 15.4222 7.116L15.6022 7.44C15.4422 7.696 15.1862 7.908 14.8342 8.076C14.4902 8.244 14.1342 8.36 13.7662 8.424C13.7662 8.504 13.7662 8.584 13.7662 8.664C13.7742 8.744 13.7782 8.828 13.7782 8.916C13.7782 9.9 13.5982 10.672 13.2382 11.232C12.8782 11.792 12.3742 12.072 11.7262 12.072C11.4622 12.072 11.1942 12.024 10.9222 11.928C10.6582 11.832 10.4182 11.672 10.2022 11.448C9.98622 11.224 9.81022 10.936 9.67422 10.584C9.54622 10.232 9.48222 9.796 9.48222 9.276C9.48222 8.924 9.51822 8.552 9.59022 8.16C9.67022 7.768 9.79822 7.408 9.97422 7.08C10.1582 6.752 10.3982 6.48 10.6942 6.264C10.9982 6.048 11.3742 5.94 11.8222 5.94ZM11.9422 11.16C12.3662 11.16 12.6782 10.952 12.8782 10.536C13.0782 10.112 13.1782 9.516 13.1782 8.748C13.1782 8.7 13.1782 8.652 13.1782 8.604C13.1782 8.556 13.1742 8.508 13.1662 8.46C12.9342 8.444 12.7662 8.392 12.6622 8.304C12.5662 8.216 12.5182 8.068 12.5182 7.86C12.5182 7.676 12.5582 7.548 12.6382 7.476C12.7182 7.396 12.8382 7.352 12.9982 7.344C12.9022 7.064 12.7782 6.872 12.6262 6.768C12.4822 6.656 12.3182 6.6 12.1342 6.6C11.8862 6.6 11.6742 6.684 11.4982 6.852C11.3302 7.012 11.1902 7.22 11.0782 7.476C10.9742 7.732 10.8982 8.016 10.8502 8.328C10.8022 8.632 10.7782 8.932 10.7782 9.228C10.7782 9.62 10.8142 9.94 10.8862 10.188C10.9582 10.436 11.0502 10.632 11.1622 10.776C11.2742 10.92 11.3982 11.02 11.5342 11.076C11.6702 11.132 11.8062 11.16 11.9422 11.16ZM15.8536 6V7.008C15.9496 6.864 16.0416 6.728 16.1296 6.6C16.2256 6.472 16.3296 6.36 16.4416 6.264C16.5536 6.168 16.6776 6.092 16.8136 6.036C16.9496 5.972 17.1016 5.94 17.2696 5.94C17.5416 5.94 17.7416 6.012 17.8696 6.156C17.9976 6.292 18.0616 6.46 18.0616 6.66C18.0616 6.78 18.0416 6.88 18.0016 6.96C17.9616 7.04 17.9136 7.104 17.8576 7.152C17.8016 7.2 17.7416 7.236 17.6776 7.26C17.6136 7.276 17.5576 7.284 17.5096 7.284C17.4376 7.284 17.3776 7.268 17.3296 7.236C17.2896 7.204 17.2456 7.172 17.1976 7.14C17.1576 7.1 17.1096 7.064 17.0536 7.032C16.9976 7 16.9256 6.984 16.8376 6.984C16.6536 6.984 16.4776 7.048 16.3096 7.176C16.1416 7.304 15.9896 7.44 15.8536 7.584V12H14.6536V6H15.8536ZM19.8968 4.176V6H20.8208V6.42H19.8968V10.08C19.8968 10.176 19.9008 10.288 19.9088 10.416C19.9168 10.536 19.9368 10.652 19.9688 10.764C20.0088 10.876 20.0648 10.972 20.1368 11.052C20.2168 11.124 20.3248 11.16 20.4608 11.16C20.6768 11.16 20.8808 11.052 21.0728 10.836C21.2728 10.62 21.4288 10.292 21.5408 9.852H21.9848C21.8488 10.356 21.7008 10.756 21.5408 11.052C21.3888 11.34 21.2288 11.56 21.0608 11.712C20.8928 11.864 20.7248 11.96 20.5568 12C20.3968 12.048 20.2488 12.072 20.1128 12.072C19.8248 12.072 19.5888 12.02 19.4048 11.916C19.2208 11.804 19.0768 11.664 18.9728 11.496C18.8688 11.328 18.7968 11.144 18.7568 10.944C18.7168 10.736 18.6968 10.532 18.6968 10.332V6.42H18.2888V6H18.6968V4.344L19.8968 4.176ZM25.9488 6V10.08C25.9488 10.16 25.9528 10.26 25.9608 10.38C25.9688 10.5 25.9888 10.62 26.0208 10.74C26.0608 10.852 26.1168 10.952 26.1888 11.04C26.2608 11.12 26.3608 11.16 26.4888 11.16C26.8808 11.16 27.1688 10.724 27.3528 9.852H27.7968C27.7088 10.356 27.5968 10.756 27.4608 11.052C27.3248 11.34 27.1808 11.56 27.0287 11.712C26.8768 11.864 26.7208 11.96 26.5608 12C26.4008 12.048 26.2568 12.072 26.1288 12.072C25.9448 12.072 25.7848 12.04 25.6488 11.976C25.5208 11.912 25.4088 11.828 25.3128 11.724C25.2248 11.62 25.1528 11.5 25.0968 11.364C25.0408 11.228 24.9968 11.084 24.9648 10.932C24.8448 11.244 24.6488 11.512 24.3768 11.736C24.1128 11.96 23.7888 12.072 23.4048 12.072C23.1648 12.072 22.9208 12.024 22.6728 11.928C22.4328 11.832 22.2128 11.676 22.0128 11.46C21.8208 11.236 21.6608 10.952 21.5328 10.608C21.4128 10.256 21.3528 9.828 21.3528 9.324C21.3528 8.956 21.3928 8.572 21.4728 8.172C21.5608 7.772 21.6968 7.408 21.8808 7.08C22.0648 6.752 22.3008 6.48 22.5888 6.264C22.8768 6.048 23.2248 5.94 23.6328 5.94C23.7288 5.94 23.8288 5.952 23.9328 5.976C24.0448 5.992 24.1488 6.024 24.2448 6.072C24.3488 6.12 24.4448 6.188 24.5328 6.276C24.6208 6.356 24.6928 6.456 24.7488 6.576V6H25.9488ZM23.7048 11.16C23.8248 11.16 23.9448 11.128 24.0648 11.064C24.1928 10.992 24.3048 10.9 24.4008 10.788C24.5048 10.668 24.5888 10.528 24.6528 10.368C24.7168 10.208 24.7488 10.036 24.7488 9.852V7.116C24.6928 6.988 24.6048 6.872 24.4848 6.768C24.3728 6.656 24.2248 6.6 24.0408 6.6C23.7848 6.6 23.5648 6.688 23.3808 6.864C23.1968 7.032 23.0488 7.248 22.9368 7.512C22.8248 7.768 22.7408 8.052 22.6848 8.364C22.6368 8.668 22.6128 8.96 22.6128 9.24C22.6128 9.928 22.7048 10.42 22.8888 10.716C23.0808 11.012 23.3528 11.16 23.7048 11.16ZM28.557 3.6V10.08C28.557 10.176 28.557 10.288 28.557 10.416C28.565 10.536 28.585 10.652 28.617 10.764C28.657 10.876 28.709 10.972 28.773 11.052C28.845 11.124 28.949 11.16 29.085 11.16C29.149 11.16 29.225 11.152 29.313 11.136C29.409 11.12 29.481 11.104 29.529 11.088C29.537 11.128 29.541 11.164 29.541 11.196C29.549 11.228 29.553 11.264 29.553 11.304C29.553 11.44 29.521 11.56 29.457 11.664C29.401 11.76 29.325 11.84 29.229 11.904C29.133 11.96 29.025 12 28.905 12.024C28.785 12.056 28.665 12.072 28.545 12.072C28.305 12.072 28.109 12.024 27.957 11.928C27.805 11.824 27.681 11.692 27.585 11.532C27.497 11.364 27.437 11.18 27.405 10.98C27.373 10.78 27.357 10.58 27.357 10.38V3.768L28.557 3.6ZM37.0933 3.6V10.08C37.0933 10.16 37.0973 10.26 37.1053 10.38C37.1133 10.5 37.1333 10.62 37.1653 10.74C37.2053 10.852 37.2613 10.952 37.3333 11.04C37.4053 11.12 37.5053 11.16 37.6333 11.16C38.0253 11.16 38.3133 10.724 38.4973 9.852H38.9413C38.8533 10.356 38.7413 10.756 38.6053 11.052C38.4693 11.34 38.3253 11.56 38.1733 11.712C38.0213 11.864 37.8653 11.96 37.7053 12C37.5453 12.048 37.4013 12.072 37.2733 12.072C37.0893 12.072 36.9293 12.04 36.7933 11.976C36.6653 11.912 36.5533 11.828 36.4573 11.724C36.3693 11.62 36.2973 11.5 36.2413 11.364C36.1853 11.228 36.1413 11.084 36.1093 10.932C35.9893 11.244 35.7933 11.512 35.5213 11.736C35.2573 11.96 34.9333 12.072 34.5493 12.072C34.3093 12.072 34.0653 12.024 33.8173 11.928C33.5773 11.832 33.3573 11.676 33.1573 11.46C32.9653 11.236 32.8053 10.952 32.6773 10.608C32.5573 10.256 32.4973 9.828 32.4973 9.324C32.4973 8.956 32.5373 8.572 32.6173 8.172C32.7053 7.772 32.8413 7.408 33.0253 7.08C33.2093 6.752 33.4453 6.48 33.7333 6.264C34.0213 6.048 34.3693 5.94 34.7773 5.94C34.8733 5.94 34.9733 5.952 35.0773 5.976C35.1893 5.992 35.2933 6.024 35.3893 6.072C35.4933 6.12 35.5893 6.188 35.6773 6.276C35.7653 6.356 35.8373 6.456 35.8933 6.576V3.768L37.0933 3.6ZM34.8493 11.16C34.9693 11.16 35.0893 11.128 35.2093 11.064C35.3373 10.992 35.4493 10.9 35.5453 10.788C35.6493 10.668 35.7333 10.528 35.7973 10.368C35.8613 10.208 35.8933 10.036 35.8933 9.852V7.116C35.8373 6.988 35.7493 6.872 35.6293 6.768C35.5173 6.656 35.3693 6.6 35.1853 6.6C34.9293 6.6 34.7093 6.688 34.5253 6.864C34.3413 7.032 34.1933 7.248 34.0813 7.512C33.9693 7.768 33.8853 8.052 33.8293 8.364C33.7813 8.668 33.7573 8.96 33.7573 9.24C33.7573 9.928 33.8493 10.42 34.0333 10.716C34.2253 11.012 34.4973 11.16 34.8493 11.16ZM42.2455 7.5C42.2455 8.06 42.0135 8.528 41.5495 8.904C41.0935 9.28 40.4575 9.512 39.6415 9.6C39.6735 9.92 39.7295 10.18 39.8095 10.38C39.8975 10.58 40.0015 10.74 40.1215 10.86C40.2415 10.972 40.3775 11.052 40.5295 11.1C40.6895 11.14 40.8535 11.16 41.0215 11.16C41.2775 11.16 41.5175 11.116 41.7415 11.028C41.9735 10.94 42.1655 10.788 42.3175 10.572C42.3255 10.628 42.3295 10.684 42.3295 10.74C42.3375 10.788 42.3415 10.832 42.3415 10.872C42.3415 11.056 42.2935 11.22 42.1975 11.364C42.1095 11.508 41.9855 11.636 41.8255 11.748C41.6735 11.852 41.4935 11.932 41.2855 11.988C41.0855 12.044 40.8735 12.072 40.6495 12.072C40.3775 12.072 40.1055 12.024 39.8335 11.928C39.5615 11.824 39.3135 11.664 39.0895 11.448C38.8735 11.224 38.6975 10.936 38.5615 10.584C38.4255 10.232 38.3575 9.804 38.3575 9.3C38.3575 8.964 38.3935 8.6 38.4655 8.208C38.5455 7.816 38.6735 7.452 38.8495 7.116C39.0335 6.78 39.2695 6.5 39.5575 6.276C39.8535 6.052 40.2175 5.94 40.6495 5.94C40.8495 5.94 41.0415 5.964 41.2255 6.012C41.4175 6.052 41.5895 6.132 41.7415 6.252C41.8935 6.364 42.0135 6.52 42.1015 6.72C42.1975 6.92 42.2455 7.18 42.2455 7.5ZM39.6295 9.132C40.1975 9.044 40.6455 8.844 40.9735 8.532C41.3095 8.22 41.4775 7.836 41.4775 7.38C41.4775 7.076 41.4255 6.86 41.3215 6.732C41.2175 6.596 41.0695 6.528 40.8775 6.528C40.6695 6.528 40.4855 6.608 40.3255 6.768C40.1735 6.928 40.0455 7.136 39.9415 7.392C39.8375 7.64 39.7575 7.92 39.7015 8.232C39.6535 8.536 39.6295 8.836 39.6295 9.132Z" fill="black"/>
</svg>
